<?xml version="1.0" standalone="no"?>
<!DOCTYPE svg PUBLIC "-//W3C//DTD SVG 20010904//EN"
 "http://www.w3.org/TR/2001/REC-SVG-20010904/DTD/svg10.dtd">
<svg version="1.0" xmlns="http://www.w3.org/2000/svg"
 width="1000.000000pt" height="1000.000000pt" viewBox="0 0 1000.000000 1000.000000"
 preserveAspectRatio="xMidYMid meet">
<metadata>
Created by potrace 1.11, written by Peter Selinger 2001-2013
</metadata>
<g transform="translate(0.000000,1000.000000) scale(0.100000,-0.100000)"
fill="#000000" stroke="none">
<path d="M0 5000 l0 -5000 5000 0 5000 0 0 5000 0 5000 -5000 0 -5000 0 0
-5000z m4835 4605 c114 -8 163 -15 228 -31 12 -3 29 -7 37 -9 8 -2 15 -4 15
-5 0 -1 11 -3 25 -6 14 -2 32 -7 40 -11 8 -3 18 -7 23 -8 4 -2 9 -4 12 -5 3
-1 9 -3 14 -4 5 0 12 -4 16 -8 4 -4 13 -4 21 -1 8 3 14 0 14 -7 0 -6 4 -9 9
-5 5 3 12 1 16 -5 4 -6 10 -8 15 -5 5 3 11 1 15 -5 4 -6 11 -8 16 -5 5 4 9 1
9 -5 0 -7 6 -10 14 -7 7 3 19 0 25 -6 6 -6 11 -7 11 -3 0 5 7 3 15 -4 8 -7 15
-9 15 -5 0 4 7 2 15 -5 8 -7 15 -9 15 -5 0 4 7 2 15 -5 8 -7 15 -9 15 -5 0 4
7 2 15 -5 8 -6 19 -9 24 -6 5 4 12 2 16 -3 3 -6 12 -8 19 -5 8 3 17 0 21 -5 3
-6 11 -9 16 -6 5 4 15 3 22 -2 6 -4 21 -9 32 -10 111 -12 125 -14 218 -28 17
-3 39 -6 47 -6 8 -1 20 -6 27 -11 7 -5 17 -7 22 -4 5 4 13 2 16 -4 4 -6 15 -8
26 -5 11 4 19 2 19 -5 0 -7 7 -10 15 -6 8 3 15 1 15 -5 0 -6 7 -9 15 -5 8 3
15 1 15 -5 0 -6 7 -9 15 -5 8 3 15 1 15 -5 0 -5 6 -9 13 -8 16 3 35 -5 137
-55 47 -22 88 -45 92 -51 5 -7 8 -7 8 0 0 6 5 2 11 -8 6 -9 14 -15 20 -12 5 4
9 1 9 -4 0 -6 6 -11 14 -11 8 0 17 -7 20 -16 3 -8 10 -13 15 -10 5 3 16 -5 25
-19 9 -14 22 -25 28 -25 16 0 78 -61 78 -77 0 -7 9 -18 20 -25 11 -7 20 -19
20 -26 0 -7 7 -15 15 -18 8 -4 12 -10 9 -15 -3 -5 2 -12 10 -15 9 -3 13 -10
10 -15 -3 -5 2 -12 10 -15 9 -3 13 -10 10 -15 -3 -5 0 -9 6 -9 6 0 9 -4 6 -9
-4 -5 -3 -11 1 -13 11 -4 67 -117 70 -142 2 -12 8 -22 13 -24 5 -2 6 -10 3
-18 -3 -8 0 -14 6 -14 6 0 8 -7 5 -15 -4 -8 -1 -15 5 -15 6 0 8 -7 5 -15 -4
-8 -1 -15 6 -15 7 0 9 -8 5 -20 -4 -12 -2 -20 5 -20 6 0 8 -10 4 -25 -3 -14
-2 -25 4 -25 5 0 10 -17 10 -37 1 -21 4 -72 7 -113 13 -155 6 -618 -9 -653 -5
-9 -5 -33 -2 -53 5 -22 3 -41 -5 -50 -7 -8 -9 -27 -5 -48 4 -22 2 -37 -5 -41
-7 -5 -9 -22 -5 -46 4 -23 2 -40 -5 -44 -6 -4 -8 -14 -5 -22 3 -8 1 -11 -4 -8
-6 3 -10 2 -10 -4 0 -6 -7 -8 -15 -5 -8 4 -15 1 -15 -6 0 -7 -8 -9 -20 -5 -11
4 -20 2 -20 -4 0 -6 -7 -8 -15 -5 -8 4 -15 1 -15 -5 0 -6 -6 -8 -14 -5 -8 3
-17 1 -20 -5 -4 -6 -13 -8 -21 -4 -8 3 -15 0 -15 -6 0 -6 -7 -8 -15 -5 -8 4
-15 1 -15 -6 0 -7 -7 -10 -15 -7 -8 4 -17 2 -21 -4 -3 -6 -12 -8 -20 -5 -7 3
-16 1 -19 -4 -3 -5 -13 -9 -23 -9 -9 0 -29 -3 -44 -6 -21 -6 -27 -3 -33 14 -3
12 -11 21 -16 21 -6 0 -8 4 -4 9 3 6 -4 15 -15 21 -11 6 -19 14 -17 18 1 4
-20 29 -47 55 -26 27 -45 44 -42 38 5 -8 -117 -11 -426 -11 l-433 0 -28 -29
c-15 -16 -27 -34 -27 -39 0 -5 -7 -13 -16 -16 -8 -3 -13 -10 -10 -15 3 -5 -1
-12 -10 -15 -8 -3 -12 -10 -9 -16 3 -5 1 -10 -5 -10 -6 0 -8 -4 -5 -10 3 -5 1
-10 -5 -10 -6 0 -8 -4 -5 -10 3 -5 2 -10 -3 -10 -5 0 -14 -11 -20 -24 l-11
-24 -218 -7 c-401 -11 -398 -11 -395 3 1 6 -2 12 -8 12 -5 0 -10 7 -10 15 0 8
-4 15 -10 15 -5 0 -10 7 -10 15 0 8 -4 15 -10 15 -5 0 -10 7 -10 15 0 8 -4 15
-10 15 -5 0 -10 7 -10 15 0 8 -4 15 -10 15 -5 0 -10 7 -10 15 0 8 -9 19 -20
25 -11 6 -18 15 -15 20 3 5 -5 16 -17 23 -19 12 -106 16 -450 21 l-428 7 -45
-42 c-24 -23 -42 -45 -40 -50 3 -4 -6 -16 -20 -25 -13 -9 -22 -20 -19 -25 3
-5 -2 -12 -10 -15 -9 -3 -14 -10 -11 -14 9 -14 -15 -23 -29 -11 -7 6 -16 8
-19 4 -4 -3 -13 0 -22 7 -8 7 -15 9 -15 4 0 -4 -5 -3 -11 3 -6 6 -18 9 -25 6
-8 -3 -14 0 -14 7 0 7 -7 10 -15 7 -8 -4 -17 -2 -20 3 -3 5 -12 7 -20 3 -8 -3
-15 0 -15 7 0 7 -7 10 -15 6 -8 -3 -15 -1 -15 5 0 6 -9 8 -20 4 -12 -4 -20 -2
-20 5 0 7 -7 10 -15 6 -8 -3 -15 -1 -15 5 0 6 -7 9 -15 6 -8 -4 -17 -2 -21 4
-3 6 -12 8 -19 5 -7 -2 -17 0 -23 6 -17 17 -34 -2 -27 -32 6 -28 -14 -57 -23
-32 -2 7 -8 10 -13 6 -5 -3 -9 0 -9 6 0 6 -4 9 -9 6 -8 -5 -16 12 -26 51 -5
19 14 27 29 14 8 -7 20 -10 27 -9 31 7 39 28 39 95 0 128 5 208 14 221 4 8 5
37 1 67 -4 34 -2 55 5 60 6 4 11 32 10 63 0 31 3 89 6 127 3 39 6 95 7 125 1
30 6 61 10 68 5 7 6 39 2 71 -4 39 -3 61 4 65 14 9 14 73 0 82 -6 3 -9 19 -5
35 3 17 1 29 -5 29 -6 0 -7 5 -3 12 4 6 -1 17 -11 25 -11 7 -15 13 -11 13 5 0
3 7 -4 15 -7 8 -16 12 -21 9 -5 -3 -9 0 -9 6 0 6 -4 8 -10 5 -5 -3 -10 -2 -10
2 0 12 -26 15 -122 15 -101 -1 -139 -4 -156 -16 -7 -4 -16 -5 -19 -2 -3 3 -15
0 -27 -6 -11 -6 2 14 29 44 28 30 53 53 58 50 4 -2 10 4 13 12 3 9 10 13 15
10 5 -3 12 2 15 10 3 9 10 13 15 10 5 -3 9 0 9 6 0 6 5 8 10 5 6 -3 10 -1 10
5 0 6 5 8 10 5 6 -3 10 -1 10 5 0 6 5 8 10 5 6 -3 10 -1 10 4 0 6 3 10 8 9 4
0 14 1 22 5 41 15 96 31 104 29 5 -2 16 0 25 4 9 4 28 6 44 5 15 -2 27 2 27 7
0 6 9 8 20 5 12 -3 20 0 20 6 0 7 5 9 10 6 6 -3 10 0 10 8 0 15 -36 56 -50 58
-13 2 -29 6 -32 9 -3 2 -9 3 -58 15 -33 8 -127 18 -167 18 -18 0 -33 4 -33 9
0 7 15 12 33 9 4 0 7 4 7 10 0 5 5 7 10 4 6 -3 10 -1 10 5 0 6 5 8 10 5 6 -3
10 -1 10 5 0 6 5 8 10 5 6 -3 10 -1 10 5 0 6 5 8 10 5 6 -3 10 -1 10 5 0 6 5
8 10 5 6 -3 10 -1 10 5 0 6 5 8 10 5 6 -3 10 -2 10 4 0 6 7 8 15 5 8 -4 15 -1
15 6 0 6 5 8 10 5 6 -3 10 -1 10 5 0 6 5 8 10 5 6 -3 10 -2 10 4 0 6 7 8 15 5
8 -4 15 -1 15 6 0 6 5 8 10 5 6 -3 10 -1 10 5 0 6 4 9 9 5 5 -3 12 -1 16 5 4
6 11 8 16 5 5 -4 9 -1 9 4 0 6 3 10 8 10 4 -1 10 0 15 1 4 1 10 3 15 4 4 1 18
8 32 16 14 7 25 12 25 11 0 -2 25 5 55 17 8 3 21 4 28 3 6 -1 12 3 12 8 0 6 7
8 15 5 8 -4 15 -1 15 5 0 6 7 8 15 5 8 -4 15 -1 15 5 0 6 3 10 8 10 4 -1 10 0
15 1 4 1 12 4 17 5 6 1 12 4 15 5 3 1 10 4 15 5 6 1 12 4 15 5 3 1 10 4 15 5
6 1 12 4 15 5 3 1 10 4 15 5 6 1 12 4 15 5 3 1 8 3 13 5 4 1 21 7 37 14 17 7
42 15 58 18 15 3 30 10 33 14 3 5 10 7 15 4 5 -4 9 -2 9 3 0 10 -22 9 -107 -2
-86 -12 -129 -18 -153 -21 -32 -5 -115 -15 -160 -20 -19 -1 -42 -4 -50 -6 -26
-4 -166 3 -147 8 9 2 17 9 17 14 0 5 6 9 13 9 8 0 24 9 37 20 12 11 27 17 31
14 5 -3 9 0 9 6 0 6 5 8 10 5 6 -3 10 -1 10 5 0 6 5 8 10 5 6 -3 10 -1 10 5 0
6 5 8 10 5 6 -3 10 -1 10 5 0 6 5 8 10 5 6 -3 10 -1 10 5 0 6 4 9 9 5 5 -3 12
-1 16 5 4 6 11 8 16 5 5 -4 9 -1 9 5 0 6 5 8 10 5 6 -3 10 -1 10 5 0 6 5 8 10
5 6 -3 10 -1 10 5 0 6 4 9 9 5 5 -3 12 -1 16 5 4 6 11 8 16 5 5 -4 9 -1 9 6 0
7 3 9 6 6 4 -3 16 -1 28 5 11 7 24 13 29 14 4 1 10 3 15 4 4 1 10 2 15 1 4 0
7 4 7 10 0 5 4 8 9 4 5 -3 12 -1 16 5 4 6 10 8 15 5 5 -3 11 -1 15 5 4 6 10 8
15 5 5 -3 11 -1 15 4 3 6 12 8 20 4 8 -3 15 0 15 6 0 6 6 8 14 5 8 -3 17 -1
20 5 4 6 13 8 21 4 8 -3 15 0 15 6 0 6 7 8 15 5 8 -4 15 -1 15 6 0 7 8 9 20 5
11 -4 20 -2 20 4 0 6 7 8 15 5 8 -4 15 -1 15 6 0 7 8 9 19 5 11 -3 22 -1 26 5
3 6 11 8 16 5 5 -4 15 -3 22 2 12 7 22 10 62 18 11 2 30 6 43 9 50 13 84 20
157 33 17 3 46 5 66 4 20 -1 46 2 57 6 20 8 347 6 467 -2z m-359 -2274 c-3 -5
1 -12 10 -15 8 -3 13 -10 9 -15 -3 -6 3 -14 12 -20 10 -6 15 -11 10 -11 -4 0
3 -17 16 -37 27 -43 34 -61 43 -118 9 -51 8 -200 0 -240 -10 -43 -14 -60 -16
-62 -2 -2 -3 -6 -4 -10 -7 -30 -19 -53 -27 -53 -6 0 -7 -4 -4 -10 3 -5 1 -10
-4 -10 -6 0 -11 -6 -11 -14 0 -8 -7 -17 -16 -20 -9 -3 -207 -6 -441 -6 -326 0
-427 3 -436 13 -11 11 -58 102 -63 120 -1 4 -3 10 -4 15 -2 4 -4 12 -5 17 -2
6 -4 12 -5 15 -13 30 -13 210 0 240 1 3 2 9 1 14 -1 4 4 14 10 22 6 8 8 14 4
14 -4 0 -2 6 4 13 6 8 8 17 4 20 -3 4 -1 7 6 7 7 0 10 4 6 9 -3 5 2 17 11 25
8 9 13 16 10 16 -3 0 2 9 12 20 9 12 17 25 17 30 0 5 9 16 20 24 17 13 80 15
428 16 238 0 406 -4 403 -9z m1815 -1 c10 -6 19 -17 19 -25 0 -8 5 -15 11 -15
5 0 8 -4 5 -8 -3 -5 6 -25 19 -44 13 -20 21 -38 18 -42 -4 -3 -1 -6 5 -6 7 0
11 -3 11 -7 -1 -5 0 -10 1 -13 2 -6 9 -35 16 -70 7 -37 7 -180 -1 -215 -7 -36
-13 -58 -15 -65 -1 -3 -2 -8 -1 -12 0 -5 -4 -8 -10 -8 -5 0 -7 -4 -4 -10 3 -5
2 -10 -3 -10 -6 0 -17 -18 -26 -40 l-16 -40 -448 0 -449 0 -12 28 c-7 15 -15
38 -18 52 -2 14 -8 26 -13 28 -4 2 -6 12 -3 22 3 12 0 20 -6 20 -7 0 -9 5 -6
10 4 6 4 19 0 28 -11 25 -11 212 -1 212 4 0 6 11 4 25 -3 14 -1 25 4 25 6 0 8
7 4 15 -3 8 -1 15 5 15 6 0 9 7 5 15 -3 8 -2 15 3 15 4 0 13 18 20 40 6 22 16
40 21 40 6 0 10 5 10 11 0 36 27 38 433 39 256 0 405 -4 418 -10z m-3186 -76
c23 -4 36 -9 120 -49 33 -16 63 -28 68 -27 4 1 7 -3 7 -9 0 -5 5 -7 10 -4 6 3
10 1 10 -5 0 -6 5 -8 10 -5 6 3 10 1 10 -5 0 -6 5 -8 10 -5 6 3 10 1 10 -5 0
-6 5 -8 10 -5 6 3 10 1 10 -6 0 -7 3 -9 6 -6 4 3 14 2 24 -3 20 -10 33 -83 31
-167 -1 -31 3 -53 9 -53 6 0 8 -10 4 -24 -3 -13 -1 -27 5 -30 5 -4 8 -13 5
-20 -3 -8 -1 -17 5 -20 6 -4 8 -13 4 -21 -3 -8 0 -15 7 -15 6 0 8 -4 5 -10 -3
-5 -1 -10 5 -10 6 0 8 -4 5 -10 -3 -5 -1 -10 5 -10 6 0 8 -4 5 -10 -3 -5 -1
-10 5 -10 6 0 8 -5 5 -10 -3 -6 1 -13 9 -16 9 -3 14 -10 11 -15 -3 -4 4 -13
16 -19 11 -7 18 -14 15 -17 -3 -4 -1 -12 5 -19 8 -10 113 -13 497 -14 267 0
488 -2 490 -5 6 -6 32 22 32 34 0 6 4 11 8 11 8 0 36 60 33 73 0 4 3 7 9 7 5
0 7 7 4 15 -4 8 -1 15 6 15 7 0 9 8 5 20 -4 12 -2 20 5 20 7 0 10 8 7 20 -3
11 -1 23 5 26 5 4 7 19 4 35 -3 17 -1 29 5 29 6 0 10 10 9 23 -1 12 -1 24 0
27 1 3 3 14 5 24 2 10 10 23 17 27 7 5 9 9 4 9 -26 0 53 54 89 60 3 0 22 7 42
14 49 17 197 17 246 0 20 -7 37 -11 37 -8 0 2 14 -3 31 -11 34 -18 70 -52 73
-69 1 -6 5 -17 9 -23 5 -7 5 -18 2 -23 -4 -6 -2 -16 3 -23 6 -7 10 -23 10 -37
-1 -26 11 -93 21 -127 1 -2 0 -4 -1 -5 -1 -2 5 -14 12 -28 8 -14 13 -28 12
-32 -1 -5 3 -8 9 -8 5 0 7 -4 4 -10 -3 -5 -1 -10 5 -10 6 0 9 -4 5 -9 -3 -6 2
-14 11 -19 9 -5 15 -13 15 -18 -2 -16 173 -22 582 -22 218 1 400 -2 403 -5 8
-8 44 25 44 40 0 7 5 13 10 13 6 0 10 7 10 15 0 8 5 15 11 15 5 0 7 5 4 10 -3
6 -1 10 5 10 6 0 8 5 5 10 -3 6 -1 10 5 10 6 0 8 5 5 10 -3 6 -1 10 5 10 6 0
8 5 5 10 -3 6 -1 10 4 10 6 0 10 3 10 8 -1 4 0 10 1 15 1 4 4 12 5 17 1 6 4
12 5 15 1 3 4 10 5 15 1 6 4 11 5 13 7 7 21 105 27 195 5 76 9 87 36 83 4 0 7
4 7 10 0 5 5 7 10 4 6 -3 10 -1 10 5 0 6 5 8 10 5 6 -3 10 -1 10 5 0 6 5 8 10
5 6 -3 10 -1 10 5 0 6 5 8 10 5 6 -3 10 -1 10 6 0 7 3 10 6 6 3 -3 30 8 60 25
30 16 54 27 54 24 0 -3 19 3 43 13 59 26 139 24 190 -4 23 -12 41 -28 40 -34
-2 -6 2 -11 8 -11 5 0 7 -4 4 -10 -3 -5 -2 -10 4 -10 6 0 8 -6 5 -14 -3 -8 -1
-17 5 -21 14 -8 14 -142 0 -150 -6 -4 -8 -22 -4 -46 5 -26 3 -39 -5 -39 -7 0
-9 -12 -4 -35 4 -25 3 -35 -6 -35 -9 0 -11 -10 -6 -30 3 -19 1 -30 -5 -30 -7
0 -9 -11 -7 -25 3 -14 1 -25 -5 -25 -5 0 -7 -9 -4 -20 3 -11 1 -23 -5 -26 -5
-3 -8 -15 -5 -25 3 -10 1 -22 -5 -25 -5 -3 -7 -12 -4 -19 2 -7 2 -16 -2 -19
-3 -4 -7 -13 -9 -21 -5 -27 -11 -50 -13 -52 -2 -2 -4 -7 -5 -13 -1 -5 -4 -12
-5 -15 -1 -3 -4 -9 -5 -15 -1 -5 -4 -12 -5 -15 -1 -3 -4 -9 -5 -15 -1 -5 -4
-13 -5 -17 -1 -5 -2 -11 -1 -15 0 -5 -4 -8 -10 -8 -6 0 -9 -6 -6 -14 3 -8 1
-16 -4 -18 -5 -2 -11 -13 -12 -26 0 -12 -5 -22 -10 -22 -4 0 -5 -4 -2 -10 3
-5 1 -10 -5 -10 -7 0 -10 -7 -6 -15 3 -8 1 -15 -5 -15 -6 0 -7 -4 -4 -10 3 -5
1 -10 -5 -10 -6 0 -8 -4 -5 -10 3 -5 1 -10 -5 -10 -6 0 -8 -4 -5 -10 3 -5 2
-10 -2 -10 -5 0 -22 -31 -39 -70 -16 -38 -33 -70 -37 -70 -5 0 -5 -4 -2 -10 3
-5 1 -10 -5 -10 -6 0 -8 -4 -5 -10 3 -5 1 -10 -4 -10 -6 0 -11 -7 -11 -15 0
-8 -5 -15 -11 -15 -5 0 -7 -4 -4 -10 3 -5 1 -10 -4 -10 -6 0 -11 -4 -11 -10 0
-5 -9 -20 -20 -32 -10 -13 -20 -26 -20 -30 -2 -13 -75 -84 -82 -80 -5 2 -8 -2
-8 -8 0 -6 -4 -9 -9 -6 -5 3 -14 -1 -21 -9 -7 -8 -9 -15 -6 -15 4 0 0 -7 -8
-16 -9 -8 -14 -20 -11 -25 4 -5 1 -9 -5 -9 -7 0 -10 -7 -6 -15 3 -8 1 -15 -5
-15 -6 0 -9 -7 -5 -15 3 -8 1 -15 -5 -15 -6 0 -9 -7 -5 -15 3 -8 1 -15 -5 -15
-6 0 -9 -7 -6 -15 4 -8 2 -17 -3 -20 -5 -3 -7 -12 -3 -20 3 -8 0 -15 -7 -15
-7 0 -10 -7 -7 -15 4 -8 2 -17 -4 -21 -6 -3 -8 -12 -5 -20 3 -7 1 -16 -4 -19
-5 -3 -7 -12 -4 -19 3 -8 0 -17 -5 -21 -6 -3 -9 -11 -6 -16 4 -5 3 -15 -2 -21
-9 -16 -14 -37 -14 -60 0 -10 -5 -20 -10 -23 -5 -4 -7 -11 -3 -16 3 -5 0 -16
-6 -24 -6 -8 -9 -19 -6 -24 4 -5 1 -13 -5 -16 -5 -4 -8 -13 -5 -21 3 -7 1 -16
-4 -19 -5 -3 -7 -12 -4 -19 3 -8 0 -17 -5 -21 -6 -3 -9 -10 -6 -15 3 -5 1 -11
-4 -15 -6 -3 -8 -12 -4 -20 3 -8 0 -15 -7 -15 -7 0 -10 -7 -6 -15 3 -8 1 -15
-5 -15 -6 0 -9 -7 -5 -15 3 -8 1 -15 -5 -15 -6 0 -9 -7 -5 -15 3 -8 1 -15 -4
-15 -4 0 -11 -13 -15 -30 -4 -16 -11 -30 -16 -30 -5 0 -9 -5 -9 -11 0 -6 -9
-21 -19 -33 -10 -11 -38 -42 -61 -68 -23 -26 -46 -45 -51 -43 -4 3 -20 -10
-36 -30 -15 -19 -33 -35 -40 -35 -7 0 -17 -9 -23 -20 -6 -11 -15 -18 -21 -15
-5 4 -12 -1 -15 -9 -3 -9 -12 -16 -20 -16 -8 0 -14 -4 -14 -10 0 -5 -7 -10
-15 -10 -8 0 -15 -4 -15 -10 0 -5 -7 -10 -15 -10 -8 0 -15 -5 -15 -11 0 -5 -4
-7 -10 -4 -5 3 -10 1 -10 -4 0 -6 -7 -11 -15 -11 -8 0 -15 -4 -15 -10 0 -5 -7
-10 -15 -10 -8 0 -15 -4 -15 -10 0 -5 -4 -10 -10 -10 -5 0 -21 -12 -36 -27
-20 -20 -29 -40 -32 -75 l-5 -48 -791 2 -791 3 0 40 c0 31 -7 47 -32 73 -17
17 -36 32 -42 32 -6 0 -11 5 -11 10 0 6 -7 10 -15 10 -8 0 -15 5 -15 10 0 6
-7 10 -15 10 -8 0 -15 5 -15 10 0 6 -6 10 -14 10 -8 0 -17 7 -20 16 -3 8 -10
13 -15 10 -5 -3 -12 1 -15 10 -3 8 -10 12 -16 9 -5 -3 -10 -1 -10 4 0 6 -5 11
-10 11 -10 0 -22 8 -55 38 -7 6 -18 12 -24 12 -6 0 -15 9 -21 20 -6 11 -15 20
-20 20 -11 0 -130 119 -130 131 0 5 -5 9 -11 9 -5 0 -7 5 -4 10 3 6 -1 13 -9
16 -9 3 -13 10 -10 15 3 5 0 9 -6 9 -6 0 -8 5 -5 10 3 6 1 10 -5 10 -6 0 -8 5
-5 10 3 6 1 10 -5 10 -6 0 -9 4 -5 9 3 5 1 12 -5 16 -6 4 -8 11 -5 16 4 5 1 9
-4 9 -6 0 -10 3 -10 8 1 4 1 9 -1 12 -1 3 -3 16 -6 30 -2 14 -7 32 -11 40 -3
8 -5 20 -4 27 1 6 -3 14 -8 18 -6 3 -8 12 -5 19 3 8 1 17 -5 20 -6 4 -8 13 -5
20 3 8 0 17 -5 21 -6 3 -9 11 -5 16 3 5 0 16 -6 24 -6 8 -9 19 -6 24 4 5 2 13
-4 16 -6 4 -8 15 -5 26 4 11 2 19 -5 19 -7 0 -9 8 -5 19 3 11 1 22 -4 25 -6 4
-8 13 -5 20 3 8 1 17 -5 20 -6 4 -8 13 -4 21 3 8 0 15 -7 15 -7 0 -9 8 -5 20
4 12 2 20 -5 20 -7 0 -9 8 -5 20 4 11 2 20 -4 20 -6 0 -8 7 -5 15 4 8 1 15 -6
15 -7 0 -10 6 -7 14 3 8 3 17 -1 21 -4 4 -8 11 -8 16 -1 5 -3 11 -4 14 -1 3
-3 8 -4 13 -1 4 -7 17 -14 28 -6 12 -8 24 -5 28 3 3 1 6 -5 6 -7 0 -12 7 -12
15 0 16 -34 38 -44 28 -3 -3 -6 -1 -6 5 0 7 -3 11 -7 10 -12 -4 -63 44 -63 59
0 7 -4 13 -10 13 -5 0 -10 7 -10 15 0 8 -4 15 -10 15 -5 0 -10 7 -10 15 0 8
-4 15 -9 15 -5 0 -12 11 -15 25 -4 14 -11 25 -17 25 -6 0 -7 5 -4 10 3 6 1 10
-5 10 -6 0 -8 5 -5 10 3 6 1 10 -5 10 -6 0 -8 5 -5 10 3 6 1 10 -4 10 -6 0
-10 3 -9 8 4 12 -24 72 -34 72 -5 0 -6 5 -3 10 3 6 1 10 -5 10 -6 0 -8 5 -5
10 3 6 1 10 -5 10 -6 0 -8 5 -5 10 3 6 1 10 -5 10 -6 0 -8 5 -5 10 3 6 1 10
-4 10 -6 0 -10 3 -9 8 1 4 -3 17 -10 30 -7 12 -10 22 -6 22 3 0 -1 11 -10 25
-9 14 -14 25 -11 25 3 0 0 10 -7 23 -7 12 -13 25 -14 30 -1 4 -2 8 -3 10 -2 1
-4 12 -6 23 -3 12 -10 34 -16 50 -7 16 -11 35 -10 42 1 6 -3 12 -8 12 -6 0 -8
7 -5 15 4 8 1 15 -6 15 -7 0 -10 7 -7 15 4 8 2 17 -3 20 -5 3 -9 13 -8 23 0 9
-3 28 -6 42 -8 33 -15 67 -22 109 -3 18 -7 43 -10 54 -17 90 -23 286 -11 336
4 13 14 30 24 37 48 38 73 55 73 50 0 -3 10 -1 23 4 12 5 33 7 47 4 14 -3 34
-8 45 -10z m3740 -3139 c307 -6 362 -8 371 -18 3 -3 12 -3 20 0 8 3 14 0 14
-7 0 -6 4 -9 9 -6 5 3 12 -1 15 -10 3 -8 10 -13 15 -10 5 3 12 -1 15 -9 3 -8
9 -14 13 -13 10 3 118 -105 115 -114 -1 -5 3 -8 8 -8 6 0 10 -6 10 -13 0 -8 9
-24 20 -37 18 -20 20 -37 20 -147 l0 -124 -22 7 c-34 10 -39 25 -17 55 27 38
24 46 -21 53 -44 7 -47 13 -25 55 18 35 12 41 -38 41 l-39 0 7 46 6 45 -45 -6
-46 -7 0 39 c0 50 -6 56 -41 38 -42 -22 -48 -19 -55 25 -7 45 -15 48 -53 21
-32 -23 -42 -18 -60 27 l-14 33 -26 -25 c-32 -31 -57 -33 -66 -7 -3 11 -12 25
-20 31 -12 10 -18 6 -32 -19 -22 -38 -39 -39 -74 -5 l-26 25 -14 -33 c-18 -45
-28 -50 -60 -27 -38 27 -46 24 -53 -21 -7 -44 -13 -47 -55 -25 -35 18 -41 12
-41 -38 l0 -39 -46 7 -45 6 6 -45 7 -46 -39 0 c-50 0 -56 -6 -38 -41 22 -42
19 -48 -25 -55 -45 -7 -48 -15 -21 -53 23 -32 18 -42 -27 -60 l-33 -14 25 -26
c31 -32 33 -57 7 -66 -11 -3 -25 -12 -31 -20 -10 -12 -6 -18 19 -32 38 -22 39
-39 5 -74 l-25 -26 33 -14 c45 -18 50 -28 27 -60 -27 -38 -24 -46 21 -53 44
-7 47 -13 25 -55 -18 -35 -12 -41 38 -41 l39 0 -7 -46 -6 -45 45 6 46 7 0 -39
c0 -50 6 -56 41 -38 42 22 48 19 55 -25 7 -45 15 -48 53 -21 32 23 42 18 60
-27 l14 -33 26 25 c32 31 57 33 66 7 3 -11 12 -25 20 -31 12 -10 18 -6 32 19
22 38 39 39 74 5 l26 -25 14 33 c18 45 28 50 60 27 38 -27 46 -24 53 21 7 44
13 47 55 25 35 -18 41 -12 41 38 l0 39 46 -7 45 -6 -6 45 -7 46 39 0 c50 0 56
6 38 41 -22 42 -19 48 25 55 45 7 48 15 21 53 -22 30 -17 45 16 55 20 6 22 2
29 -51 8 -66 10 -508 7 -1456 l-3 -648 -30 -10 c-16 -6 -30 -15 -30 -21 0 -5
-4 -6 -10 -3 -5 3 -10 1 -10 -5 0 -6 -4 -8 -10 -5 -5 3 -10 1 -10 -5 0 -6 -4
-9 -9 -5 -5 3 -17 -2 -25 -11 -9 -8 -16 -13 -16 -9 0 3 -10 -1 -23 -10 -13 -8
-27 -12 -30 -8 -4 3 -7 1 -7 -6 0 -7 -4 -9 -10 -6 -5 3 -10 1 -10 -6 0 -7 -3
-9 -6 -6 -4 3 -16 1 -28 -5 -11 -7 -23 -13 -26 -13 -30 -4 -60 -17 -60 -26 0
-6 -4 -8 -9 -4 -5 3 -12 1 -16 -5 -4 -6 -11 -8 -16 -5 -5 4 -9 1 -9 -5 0 -6
-4 -8 -10 -5 -5 3 -10 1 -10 -5 0 -7 -6 -10 -14 -7 -7 3 -24 -2 -37 -11 -13
-9 -26 -16 -29 -16 -6 2 -28 -5 -55 -16 -26 -11 -58 -23 -67 -25 -5 -2 -10 -4
-13 -5 -3 -1 -9 -4 -15 -5 -5 -1 -12 -4 -15 -5 -3 -1 -9 -3 -14 -4 -5 0 -12
-4 -16 -8 -4 -4 -13 -4 -21 -1 -8 3 -14 0 -14 -6 0 -6 -7 -8 -15 -5 -8 4 -15
1 -15 -5 0 -6 -7 -8 -15 -5 -8 4 -15 1 -15 -6 0 -7 -7 -10 -15 -7 -8 4 -17 2
-20 -3 -3 -5 -12 -7 -20 -3 -8 3 -15 0 -15 -6 0 -6 -6 -8 -14 -5 -8 3 -17 0
-21 -5 -3 -6 -11 -9 -16 -6 -5 4 -9 1 -9 -5 0 -7 -8 -9 -20 -5 -12 4 -20 2
-20 -5 0 -7 -7 -10 -15 -6 -8 3 -15 1 -15 -5 0 -6 -9 -8 -20 -4 -12 4 -20 2
-20 -5 0 -7 -8 -9 -19 -5 -11 3 -22 1 -25 -4 -4 -6 -13 -8 -20 -5 -8 3 -17 1
-20 -5 -4 -6 -13 -8 -21 -4 -8 3 -15 0 -15 -7 0 -7 -7 -10 -16 -6 -9 4 -22 2
-28 -2 -6 -5 -18 -10 -26 -10 -8 0 -26 -3 -40 -7 -14 -3 -36 -8 -50 -11 -14
-2 -36 -6 -50 -9 -14 -3 -35 -6 -47 -6 -12 1 -24 -3 -27 -8 -3 -4 -17 -6 -31
-3 -14 2 -25 0 -25 -7 0 -6 -11 -8 -30 -4 -19 3 -30 1 -30 -6 0 -7 -9 -9 -25
-5 -16 4 -25 2 -25 -6 0 -8 -10 -10 -34 -6 -21 4 -37 2 -41 -4 -4 -7 -19 -9
-36 -5 -17 4 -29 2 -29 -3 0 -6 -15 -9 -32 -7 -18 1 -37 -1 -43 -4 -5 -3 -26
-7 -45 -8 -19 -1 -60 -4 -90 -7 -167 -16 -283 -20 -540 -21 -252 0 -340 3
-545 21 -113 10 -130 12 -130 14 0 1 -28 3 -63 5 -34 2 -69 8 -76 14 -8 7 -25
9 -39 6 -14 -4 -28 -2 -32 5 -4 7 -18 9 -36 5 -19 -4 -29 -3 -29 5 0 8 -10 10
-25 8 -14 -3 -28 -1 -31 4 -4 5 -17 7 -30 4 -13 -4 -24 -2 -24 4 0 5 -10 9
-22 9 -13 0 -39 2 -58 6 -19 3 -42 7 -50 7 -8 0 -20 5 -27 10 -7 5 -17 7 -23
3 -5 -3 -16 -3 -22 2 -16 9 -37 14 -60 14 -10 0 -20 4 -23 9 -3 5 -12 7 -19 4
-8 -3 -17 -1 -20 5 -4 6 -13 8 -20 5 -8 -3 -17 0 -21 5 -3 6 -11 9 -16 5 -5
-3 -16 0 -24 6 -8 7 -15 9 -15 5 0 -4 -7 -2 -15 5 -8 6 -19 9 -24 6 -5 -4 -12
-2 -16 3 -3 6 -12 8 -20 4 -8 -3 -15 0 -15 7 0 7 -8 9 -20 5 -12 -4 -20 -2
-20 5 0 6 -4 9 -9 5 -5 -3 -13 0 -16 6 -4 5 -13 8 -21 5 -16 -6 -15 -9 -19 59
-6 127 -89 219 -287 317 -196 98 -301 200 -301 293 0 65 34 119 94 149 120 60
298 3 390 -124 30 -42 86 -95 119 -115 36 -21 75 -50 88 -65 29 -35 49 -85 41
-105 -16 -41 -7 -45 47 -19 33 16 79 75 79 104 0 8 -18 29 -40 47 -42 33 -84
93 -66 93 16 0 13 26 -5 41 -8 7 -27 35 -40 61 -14 27 -34 58 -45 69 -11 11
-19 23 -16 25 2 3 37 14 78 25 104 29 204 84 278 155 63 60 64 60 48 85 -13
19 -17 51 -18 135 0 60 -1 141 -1 180 -1 56 3 80 20 107 15 26 17 34 6 30 -9
-3 -14 2 -14 17 0 17 4 20 21 15 11 -4 34 -1 50 5 23 10 27 16 18 26 -6 7 -8
18 -5 23 9 14 49 9 64 -9 20 -22 7 62 -18 117 -10 24 -16 43 -12 43 4 0 50
-25 102 -55 l94 -54 51 29 c27 16 120 69 205 118 l155 90 0 238 0 238 -206
119 -207 119 -206 -119 -206 -118 0 -171 c0 -140 3 -174 15 -184 8 -7 15 -20
14 -29 0 -10 -2 -11 -6 -3 -2 6 -11 12 -18 12 -7 0 -16 6 -19 13 -3 6 -3 2 0
-11 7 -28 -13 -37 -50 -22 -19 7 -26 15 -22 25 3 8 3 15 0 15 -2 0 -9 -11 -14
-25 -12 -31 -53 -34 -73 -5 l-14 21 -6 -21 c-4 -15 -13 -20 -36 -20 -25 0 -32
5 -38 28 l-6 27 -11 -25 c-15 -34 -60 -36 -64 -2 l-3 23 -21 -26 c-26 -33 -61
-30 -67 5 l-4 25 -6 -25 c-5 -19 -13 -25 -36 -25 -23 0 -31 6 -36 25 -5 17 -7
19 -8 7 -1 -10 -5 -15 -11 -12 -5 3 -10 0 -10 -8 0 -9 -11 -14 -30 -15 -24 0
-31 4 -36 25 -5 17 -9 21 -14 12 -5 -7 -6 -18 -3 -26 4 -9 -5 -13 -31 -13 -29
0 -36 4 -36 20 0 11 -5 20 -11 20 -5 0 -7 -5 -3 -11 9 -15 -14 -29 -50 -29
-23 0 -27 4 -23 19 3 14 1 18 -9 14 -8 -3 -14 -10 -14 -17 0 -7 -4 -6 -9 3
-13 21 -43 -1 -101 -72 -104 -127 -153 -267 -153 -432 0 -173 58 -326 169
-445 85 -91 86 -97 12 -90 -33 3 -61 3 -63 -1 -3 -3 5 -16 16 -27 15 -17 16
-22 5 -22 -8 0 -38 -5 -66 -11 -48 -10 -50 -12 -36 -28 22 -24 21 -25 -24 -56
-44 -31 -51 -45 -20 -45 27 0 25 -9 -10 -61 -36 -53 -36 -57 -7 -55 34 3 35 0
22 -63 l-12 -60 27 14 27 14 17 -62 c16 -56 19 -60 31 -44 13 18 16 17 67 -20
54 -39 130 -79 253 -133 39 -16 77 -35 85 -40 8 -5 29 -17 47 -26 53 -27 130
-111 147 -162 18 -52 22 -86 7 -63 -5 8 -16 11 -25 8 -9 -4 -16 -2 -16 4 0 6
-6 9 -14 6 -8 -3 -16 -1 -18 4 -2 5 -14 11 -28 13 -14 2 -38 9 -55 16 -16 6
-34 13 -40 14 -9 3 -22 7 -62 23 -10 3 -21 7 -25 8 -5 2 -11 4 -15 5 -5 1 -11
2 -15 1 -5 0 -8 3 -8 9 0 5 -7 7 -15 4 -8 -4 -15 -1 -15 6 0 6 -4 8 -10 5 -5
-3 -10 -1 -10 5 0 6 -4 9 -9 5 -5 -3 -12 -1 -16 5 -4 6 -11 8 -16 5 -5 -4 -9
-1 -9 5 0 7 -7 10 -15 6 -8 -3 -15 -1 -15 5 0 6 -4 7 -10 4 -5 -3 -10 -2 -10
3 0 8 -30 20 -57 23 -5 1 -17 6 -28 12 -11 6 -23 10 -27 9 -5 -1 -8 2 -8 8 0
6 -3 9 -7 8 -13 -3 -56 14 -71 28 -7 8 -18 12 -23 9 -5 -4 -9 -1 -9 5 0 6 -4
8 -10 5 -5 -3 -10 -1 -10 5 0 6 -4 9 -9 5 -5 -3 -12 -1 -16 5 -4 6 -11 8 -16
5 -5 -4 -9 -1 -9 4 0 6 -4 10 -10 9 -6 -2 -10 461 -10 1329 0 1148 2 1338 15
1375 8 24 19 44 25 46 5 2 10 10 10 17 0 8 9 19 20 25 11 6 20 17 20 24 0 16
34 48 43 40 3 -3 13 6 22 20 10 14 21 24 25 21 4 -2 16 4 27 15 12 10 24 16
27 13 3 -4 6 -2 6 4 0 5 6 10 13 11 44 7 244 12 590 15 218 2 399 6 402 8 5 6
2712 0 3080 -6z m85 -149 c19 -23 8 -61 -18 -64 -44 -7 -67 32 -36 62 19 20
38 20 54 2z m-76 -81 c15 -19 34 -35 44 -35 9 0 32 16 52 35 34 33 37 34 75
24 67 -18 151 -68 203 -121 75 -75 80 -89 54 -144 -33 -67 -30 -80 28 -105 49
-21 50 -22 50 -65 0 -40 -2 -44 -24 -44 -18 0 -25 -7 -30 -32 -9 -44 -23 -58
-61 -58 -37 0 -50 12 -60 57 -3 18 -20 46 -36 64 l-29 31 31 25 c85 72 75 167
-23 223 -42 24 -50 25 -303 30 l-260 5 30 28 c40 38 109 78 170 99 27 10 53
17 56 18 4 0 19 -16 33 -35z m-349 -265 c8 -24 -3 -48 -26 -55 -26 -8 -49 11
-49 41 0 41 62 54 75 14z m95 -130 l0 -150 -64 0 c-36 0 -68 5 -71 11 -4 6 -9
46 -12 89 l-6 78 49 24 c50 23 57 38 39 81 -6 14 -2 17 29 17 l36 0 0 -150z
m775 116 c0 -52 -63 -62 -73 -12 -7 33 6 47 40 44 29 -3 33 -7 33 -32z m-377
12 c18 -18 14 -56 -7 -68 -11 -5 -58 -10 -105 -10 l-86 0 0 45 0 45 93 0 c59
0 97 -4 105 -12z m492 -93 c0 -26 -3 -33 -15 -29 -18 7 -20 35 -3 52 17 17 18
16 18 -23z m0 -121 c0 -31 -2 -35 -15 -24 -25 21 -19 49 13 59 1 1 2 -15 2
-35z m-527 6 c17 -13 29 -37 36 -72 15 -65 38 -114 60 -124 9 -5 60 -11 113
-14 l97 -5 -18 -24 c-16 -21 -21 -23 -63 -14 -59 13 -74 3 -82 -52 -9 -54 -29
-67 -126 -85 -71 -13 -137 -8 -216 16 -51 16 -51 17 -63 69 -7 29 -18 56 -25
58 -8 3 -33 1 -57 -4 -39 -9 -45 -8 -61 13 l-17 23 185 3 184 2 0 70 0 70 -55
0 -55 0 0 45 0 45 69 0 c53 0 74 -4 94 -20z m887 -59 c12 -14 68 -40 74 -34 3
3 6 1 6 -6 0 -7 5 -9 10 -6 6 3 10 1 10 -5 0 -6 5 -8 10 -5 6 3 10 1 10 -5 0
-6 5 -8 10 -5 6 3 10 1 10 -4 0 -6 7 -11 15 -11 8 0 15 -5 15 -11 0 -5 5 -7
10 -4 6 3 10 1 10 -4 0 -6 7 -11 15 -11 8 0 15 -5 15 -11 0 -5 4 -8 9 -5 5 3
12 -1 15 -10 3 -8 10 -13 15 -10 5 3 12 -1 15 -10 3 -8 10 -13 15 -10 5 3 12
-1 15 -10 3 -8 10 -13 15 -10 5 3 11 -1 15 -9 3 -8 12 -15 21 -15 8 0 15 -5
15 -10 0 -6 8 -14 17 -17 17 -7 38 -23 77 -60 13 -13 26 -23 30 -23 10 0 210
-204 208 -212 -1 -4 9 -15 23 -24 14 -9 22 -20 19 -25 -3 -5 2 -12 10 -15 9
-3 13 -10 10 -15 -3 -5 1 -12 9 -15 9 -3 18 -16 21 -30 4 -13 11 -24 17 -24 6
0 7 -4 4 -10 -3 -5 -1 -10 5 -10 6 0 8 -4 5 -10 -3 -5 -2 -10 2 -10 5 0 10
-12 11 -27 1 -16 6 -29 11 -31 5 -2 7 -12 4 -22 -3 -11 -1 -20 5 -20 6 0 8 -9
5 -20 -3 -12 0 -20 7 -20 8 0 10 -8 6 -24 -3 -14 -1 -28 5 -31 6 -4 8 -18 5
-30 -3 -13 -2 -27 4 -30 6 -3 10 -18 10 -33 -1 -15 2 -47 5 -72 3 -25 7 -89 9
-142 l5 -97 -35 -38 c-20 -21 -40 -37 -45 -36 -5 2 -16 -8 -25 -22 -9 -14 -22
-25 -30 -25 -8 0 -19 -9 -26 -20 -7 -11 -18 -20 -25 -20 -7 0 -17 -9 -23 -20
-6 -11 -15 -18 -20 -15 -5 3 -14 -4 -20 -15 -6 -11 -17 -20 -26 -20 -8 0 -17
-7 -20 -15 -4 -8 -13 -15 -20 -15 -8 0 -17 -7 -20 -15 -4 -8 -13 -15 -20 -15
-8 0 -17 -7 -20 -15 -4 -8 -13 -15 -20 -15 -8 0 -17 -7 -20 -15 -4 -8 -10 -13
-15 -10 -4 3 -13 -4 -19 -15 -6 -11 -15 -18 -19 -15 -5 3 -12 -2 -15 -11 -3
-8 -10 -12 -16 -9 -6 3 -13 -1 -16 -9 -3 -9 -12 -16 -19 -16 -7 0 -16 -7 -19
-16 -3 -8 -10 -12 -16 -9 -6 3 -13 -1 -16 -9 -3 -9 -12 -16 -20 -16 -8 0 -14
-4 -14 -10 0 -5 -7 -10 -15 -10 -8 0 -15 -4 -15 -10 0 -5 -6 -10 -14 -10 -8 0
-17 -7 -20 -16 -3 -8 -10 -13 -15 -10 -5 3 -12 -1 -15 -10 -3 -8 -10 -12 -16
-9 -5 3 -10 1 -10 -4 0 -6 -7 -11 -15 -11 -8 0 -15 -4 -15 -10 0 -5 -7 -10
-15 -10 -8 0 -15 -4 -15 -10 0 -5 -7 -10 -15 -10 -8 0 -15 -4 -15 -10 0 -5 -7
-10 -15 -10 -8 0 -15 -5 -15 -11 0 -5 -4 -7 -10 -4 -5 3 -10 1 -10 -6 0 -7 -3
-9 -6 -6 -8 8 -64 -24 -64 -36 0 -4 -4 -5 -10 -2 -7 4 -10 357 -10 1026 l0
1020 23 -12 c12 -7 24 -15 27 -18z m-5663 -59 c4 -196 1 -1937 -3 -1944 -3 -5
-12 -1 -20 9 -7 10 -14 14 -14 10 0 -4 -10 1 -22 12 -11 11 -25 18 -30 15 -4
-3 -8 0 -8 5 0 6 -7 11 -15 11 -8 0 -15 5 -15 10 0 6 -7 10 -15 10 -8 0 -15 5
-15 11 0 5 -4 7 -10 4 -5 -3 -10 -1 -10 4 0 6 -7 11 -15 11 -8 0 -15 5 -15 10
0 6 -7 10 -15 10 -8 0 -15 5 -15 10 0 6 -7 10 -15 10 -8 0 -15 5 -15 10 0 6
-7 10 -15 10 -8 0 -15 5 -15 10 0 6 -7 10 -15 10 -8 0 -15 5 -15 10 0 6 -7 10
-15 10 -8 0 -15 5 -15 10 0 6 -6 10 -14 10 -8 0 -17 7 -20 16 -3 8 -10 13 -15
10 -5 -3 -12 1 -15 10 -3 8 -10 13 -15 10 -5 -3 -12 1 -15 10 -3 8 -10 13 -15
9 -6 -3 -15 4 -21 15 -6 11 -15 18 -19 15 -5 -3 -12 2 -15 11 -3 8 -10 12 -16
9 -6 -3 -13 1 -16 9 -3 9 -12 16 -20 16 -8 0 -14 5 -14 10 0 6 -11 15 -25 20
-14 5 -25 14 -25 20 0 5 -7 10 -15 10 -8 0 -19 9 -25 20 -6 11 -15 18 -19 15
-5 -2 -16 7 -25 20 -9 14 -21 23 -26 20 -5 -3 -14 4 -20 15 -6 11 -17 20 -24
20 -8 0 -26 16 -40 35 -15 20 -31 33 -35 31 -4 -3 -25 12 -46 34 -40 41 -44
62 -31 165 4 28 7 63 7 79 0 16 4 35 10 42 5 7 7 23 4 37 -4 14 -2 28 5 32 7
4 9 18 5 36 -4 19 -3 29 5 29 8 0 10 9 6 25 -4 16 -2 25 5 25 7 0 9 10 7 25
-3 14 -1 25 5 25 5 0 7 9 4 20 -3 11 -1 23 5 26 5 3 7 12 4 20 -3 8 -1 14 5
14 6 0 9 7 5 15 -3 8 -1 15 5 15 6 0 7 5 4 10 -3 6 -1 10 5 10 6 0 8 5 5 10
-3 6 -1 10 5 10 6 0 8 5 5 10 -3 6 -1 10 5 10 6 0 9 4 6 9 -3 5 1 12 10 15 8
3 13 10 10 15 -3 5 1 12 10 15 8 3 13 10 10 15 -3 5 1 12 10 15 8 3 13 10 10
14 -3 5 8 19 24 31 17 12 29 25 28 29 -3 9 144 158 154 155 4 -2 16 11 28 27
12 17 28 30 36 30 8 0 17 7 20 15 4 8 12 15 20 15 8 0 19 9 26 20 7 11 18 20
24 20 7 0 15 7 18 16 3 8 10 12 16 9 6 -3 13 1 16 9 3 9 10 14 14 11 4 -3 11
2 14 11 3 8 10 12 16 9 5 -3 10 -1 10 4 0 6 7 11 15 11 8 0 15 5 15 10 0 6 7
10 15 10 8 0 15 5 15 11 0 5 4 8 8 5 5 -3 18 3 29 14 12 10 24 16 27 13 3 -4
6 -2 6 4 0 6 11 14 25 17 14 4 25 11 25 17 0 6 5 7 10 4 6 -3 10 -1 10 5 0 6
4 9 8 6 5 -3 18 3 29 14 12 10 24 16 27 13 3 -4 6 -1 6 5 0 6 6 9 13 6 9 -3
14 -25 14 -62z m1815 -194 c80 -30 88 -35 88 -60 0 -19 -7 -28 -27 -36 -16 -5
-58 -21 -95 -35 l-68 -26 0 29 c0 26 5 31 55 46 30 10 52 20 49 23 -3 3 -26
13 -52 22 -39 13 -48 20 -50 42 -2 15 0 27 5 27 4 0 47 -14 95 -32z m2658 18
c6 -8 10 -25 8 -38 -6 -42 -78 -32 -78 11 0 37 46 55 70 27z m538 5 c8 -5 12
-21 10 -37 -2 -21 -9 -30 -26 -32 -44 -7 -67 32 -36 62 17 18 32 20 52 7z
m-2888 -261 c0 -19 -7 -20 -100 -20 -93 0 -100 1 -100 20 0 19 7 20 100 20 93
0 100 -1 100 -20z m-990 -76 c0 -20 -5 -24 -30 -24 -25 0 -30 4 -30 24 0 18 6
26 23 28 31 5 37 1 37 -28z m347 22 c0 0 3 -10 5 -21 2 -16 -3 -21 -30 -23
-36 -4 -53 18 -32 43 10 12 42 13 57 1z m95 -18 c-4 -23 -9 -28 -32 -28 -19 0
-29 6 -33 19 -6 25 6 36 40 36 26 1 28 -2 25 -27z m-884 0 c-2 -17 -11 -24
-30 -26 -24 -3 -28 0 -28 22 0 22 4 26 31 26 26 0 30 -3 27 -22z m90 -3 c-2
-21 -7 -25 -30 -23 -22 2 -28 7 -28 25 0 19 5 23 30 23 26 0 29 -3 28 -25z
m90 3 c-2 -18 -11 -24 -35 -26 -30 -3 -33 -1 -33 22 0 23 4 26 36 26 31 0 35
-3 32 -22z m86 6 c9 -23 -1 -33 -32 -31 -20 2 -28 8 -30 25 -3 18 1 22 26 22
18 0 32 -6 36 -16z m90 7 c12 -19 -6 -40 -35 -39 -24 1 -29 5 -29 25 0 19 5
23 29 23 17 0 32 -4 35 -9z m174 -13 c-3 -25 -43 -37 -60 -20 -19 19 0 42 32
42 27 0 31 -3 28 -22z m84 16 c3 -3 3 -14 1 -25 -8 -29 -57 -22 -61 9 -3 18 1
22 26 22 16 0 31 -3 34 -6z m91 -14 c3 -11 2 -20 -1 -21 -4 0 -18 -3 -32 -5
-21 -3 -26 0 -28 21 -1 21 2 25 27 25 20 0 30 -6 34 -20z m-745 -67 c3 -19 -1
-23 -26 -23 -35 0 -41 5 -35 31 8 29 57 22 61 -8z m73 17 c5 0 9 -9 9 -20 0
-25 -45 -28 -54 -4 -8 21 3 37 21 30 8 -3 19 -6 24 -6z m101 -2 c9 -24 -4 -38
-33 -38 -22 0 -29 5 -29 19 0 12 8 21 23 24 12 2 25 5 28 6 4 0 9 -5 11 -11z
m86 -11 c-2 -16 -11 -23 -30 -25 -24 -3 -28 0 -28 21 0 20 5 24 31 25 26 1 30
-3 27 -21z m87 -2 c0 -14 -8 -20 -27 -22 -31 -2 -41 8 -32 30 9 24 59 17 59
-8z m69 15 c39 -15 33 -40 -9 -40 -27 0 -35 4 -35 18 0 16 8 32 16 32 1 0 14
-4 28 -10z m76 0 c0 -5 7 -7 15 -4 8 4 15 1 15 -5 0 -6 0 -14 0 -18 0 -5 -11
-9 -24 -10 -24 -2 -42 20 -30 38 7 12 24 12 24 -1z m115 -12 c-1 -17 -9 -24
-30 -26 -22 -3 -27 0 -21 13 3 9 6 21 6 26 0 5 10 9 23 9 18 0 23 -5 22 -22z
m92 9 c19 -14 3 -37 -27 -37 -27 0 -46 22 -35 40 7 11 46 9 62 -3z m87 -3 c11
-28 7 -34 -24 -34 -34 0 -52 26 -29 41 22 14 46 11 53 -7z m86 -9 c0 -21 -5
-25 -30 -25 -19 0 -30 5 -30 14 0 21 21 31 31 15 7 -11 9 -10 9 4 0 9 5 17 10
17 6 0 10 -11 10 -25z m90 0 c0 -21 -5 -25 -30 -25 -22 0 -30 5 -30 18 0 25 9
32 37 32 18 0 23 -5 23 -25z m-482 -68 c3 -25 1 -27 -33 -27 -30 0 -36 3 -31
16 3 9 6 19 6 24 0 9 28 19 45 16 6 -2 11 -15 13 -29z m87 3 c0 -20 -5 -25
-28 -27 -30 -2 -44 16 -33 43 4 10 15 14 33 12 22 -2 28 -8 28 -28z m86 4 c12
-31 10 -34 -26 -34 -30 0 -35 3 -35 23 0 13 3 27 6 30 13 12 48 0 55 -19z m89
-4 c0 -26 -3 -30 -29 -30 -32 0 -48 24 -30 46 6 8 22 14 35 14 20 0 24 -5 24
-30z m90 -2 c0 -24 -4 -28 -29 -28 -29 0 -45 19 -35 43 3 8 18 14 34 14 26 0
30 -4 30 -29z m88 -1 c3 -24 0 -27 -27 -27 -28 0 -31 3 -31 29 0 26 3 30 28
28 21 -2 28 -8 30 -30z m66 23 c16 -6 26 -17 26 -30 0 -16 -7 -20 -35 -20 -30
0 -35 3 -35 23 0 21 7 37 16 37 1 0 14 -4 28 -10z m-1037 -19 c1 -13 -6 -20
-22 -24 -30 -5 -34 -1 -28 24 7 26 48 26 50 0z m90 3 c7 -20 -12 -33 -38 -27
-19 5 -25 24 -12 36 12 13 44 7 50 -9z m86 -5 c5 -19 -7 -24 -43 -19 -20 3
-21 5 -15 22 9 22 52 20 58 -3z m82 -1 c-1 -18 -7 -22 -26 -20 -30 5 -33 8
-26 27 4 8 17 15 30 15 18 0 23 -5 22 -22z m95 -3 c0 -23 -3 -25 -27 -19 -35
9 -37 10 -30 29 4 8 18 15 32 15 20 0 25 -5 25 -25z m86 2 c-1 -30 -50 -31
-54 -1 -2 17 3 21 26 22 24 0 29 -3 28 -21z m-481 -67 c0 -20 -6 -26 -27 -28
-25 -3 -28 0 -28 28 0 28 3 31 28 28 21 -2 27 -8 27 -28z m93 2 c2 -14 -2 -22
-11 -22 -9 0 -22 -3 -31 -6 -18 -7 -31 18 -22 41 9 24 60 14 64 -13z m90 1 c2
-13 -1 -23 -7 -24 -51 -5 -56 -3 -59 24 -3 27 -1 28 30 25 25 -2 34 -8 36 -25z
m87 7 c8 -25 -3 -43 -22 -36 -9 4 -11 2 -7 -6 4 -6 6 -37 5 -70 -1 -32 0 -58
2 -58 3 0 11 8 18 17 10 11 10 14 2 9 -8 -4 -13 -1 -13 8 0 9 9 16 20 16 11 0
20 -4 20 -10 0 -5 14 -10 31 -10 17 0 28 4 24 10 -3 6 3 10 14 10 12 0 21 -7
21 -16 0 -9 -5 -12 -12 -8 -6 4 -4 -3 5 -17 13 -18 17 -46 17 -121 0 -97 0
-98 -25 -98 -24 0 -24 2 -27 92 -3 79 -6 93 -20 96 -11 2 -18 -3 -18 -12 0 -9
-5 -16 -11 -16 -5 0 -7 6 -3 13 9 13 -26 -11 -38 -28 -4 -5 -8 -40 -8 -77 l0
-68 -30 0 -30 0 0 170 c0 118 3 170 11 170 6 0 9 7 5 15 -10 26 5 45 34 45 20
0 31 -6 35 -20z m80 -10 c0 -22 -4 -25 -30 -22 -37 4 -39 6 -26 30 16 29 56
24 56 -8z m56 8 l2 -23 4 23 c2 12 11 22 19 22 17 0 18 -19 1 -40 -19 -24 -42
-18 -45 13 -2 15 1 27 7 27 6 0 12 -10 12 -22z m121 7 c0 -8 1 -21 2 -27 1
-18 -54 -20 -61 -2 -9 24 5 44 32 44 15 0 26 -6 27 -15z m92 7 c3 -5 3 -18 0
-30 -9 -33 -56 -25 -60 11 -2 24 1 27 26 27 16 0 31 -4 34 -8z m82 -5 c4 -4 2
-7 -5 -7 -7 0 -11 -6 -8 -13 3 -7 -3 -13 -13 -14 -16 -1 -34 29 -24 40 6 6 43
2 50 -6z m264 -18 c0 -10 -4 -19 -10 -19 -5 0 -7 8 -4 18 5 16 5 16 -6 0 -15
-24 -30 -23 -30 1 0 11 8 21 18 24 24 5 32 -1 32 -24z m180 16 c0 -10 -33 -35
-46 -35 -13 0 -20 31 -9 42 5 5 55 -2 55 -7z m-364 -16 c0 -13 -7 -19 -23 -19
-16 0 -23 6 -23 19 0 13 7 19 23 19 16 0 23 -6 23 -19z m94 1 c0 -14 -7 -20
-23 -20 -16 0 -23 6 -23 20 0 14 7 20 23 20 16 0 23 -6 23 -20z m180 0 c0 -11
-4 -20 -10 -20 -5 0 -10 7 -10 15 0 8 -4 15 -10 15 -5 0 -10 -7 -10 -15 0 -8
-4 -15 -10 -15 -5 0 -10 9 -10 20 0 16 7 20 30 20 23 0 30 -4 30 -20z m-1071
-55 c8 0 16 -6 19 -12 2 -7 -3 -13 -11 -13 -9 0 -22 -2 -30 -5 -10 -4 -13 1
-11 17 4 34 4 34 12 23 4 -5 13 -10 21 -10z m85 -17 c-11 -12 -21 -15 -27 -9
-16 16 0 40 23 34 20 -5 20 -6 4 -25z m101 7 c0 -28 -40 -27 -43 0 -1 17 4 21
21 20 14 -1 22 -8 22 -20z m179 7 c-2 -26 -5 -29 -24 -27 -25 2 -34 11 -27 28
6 17 52 15 51 -1z m52 -6 c0 -15 -5 -21 -10 -16 -5 5 -6 16 -3 24 9 23 15 19
13 -8z m34 -1 c0 -14 -4 -25 -10 -25 -5 0 -10 11 -10 25 0 14 5 25 10 25 6 0
10 -11 10 -25z m93 11 c3 -8 -1 -20 -9 -27 -12 -10 -13 -9 -8 7 6 16 5 17 -7
7 -17 -17 -29 -16 -29 1 0 8 10 17 23 19 12 2 23 5 23 6 1 0 4 -5 7 -13z m57
4 c0 -5 -4 -10 -10 -10 -5 0 -10 5 -10 10 0 6 5 10 10 10 6 0 10 -4 10 -10z
m30 0 c0 -5 -5 -10 -11 -10 -5 0 -7 5 -4 10 3 6 8 10 11 10 2 0 4 -4 4 -10z
m88 -12 c4 -22 -17 -33 -24 -13 -6 13 -8 14 -15 3 -6 -9 -9 -7 -9 8 0 15 6 20
23 19 12 -1 23 -9 25 -17z m86 -19 c-3 -5 -11 -9 -17 -9 -7 0 -6 4 3 10 9 6
10 10 3 10 -6 0 -15 -4 -18 -10 -10 -16 -23 -12 -21 8 2 24 28 33 43 15 7 -9
10 -20 7 -24z m86 17 c0 -18 -5 -23 -25 -23 -14 0 -25 4 -25 9 0 5 5 6 10 3 6
-3 10 -1 10 4 0 6 -6 11 -12 12 -7 0 -4 4 7 9 31 13 35 12 35 -14z m86 1 c-1
-28 -46 -35 -46 -8 0 22 4 26 28 28 14 1 19 -4 18 -20z m58 0 c-5 -8 -3 -8 7
1 17 16 29 15 29 -2 0 -16 -41 -29 -54 -16 -11 11 1 43 14 35 6 -4 7 -12 4
-18z m126 -3 c0 -15 -45 -20 -54 -5 -8 12 2 19 29 19 15 0 25 -6 25 -14z
m-565 -14 c3 -5 1 -10 -4 -10 -6 0 -11 5 -11 10 0 6 2 10 4 10 3 0 8 -4 11
-10z m30 0 c3 -5 1 -10 -4 -10 -6 0 -11 5 -11 10 0 6 2 10 4 10 3 0 8 -4 11
-10z m-655 -45 c0 -19 -11 -19 -36 0 -18 14 -18 14 9 15 17 0 27 -5 27 -15z
m70 -5 c-18 -15 -26 -17 -31 -8 -11 18 -1 28 28 28 l26 0 -23 -20z m80 13 c0
-5 -5 -15 -10 -23 -8 -12 -10 -11 -10 8 0 12 5 22 10 22 6 0 10 -3 10 -7z m24
-8 c3 -9 0 -15 -9 -15 -9 0 -12 6 -9 15 4 8 7 15 9 15 2 0 5 -7 9 -15z m46 -7
c0 -16 -3 -19 -11 -11 -6 6 -8 16 -5 22 11 17 16 13 16 -11z m266 3 c0 -11 -4
-17 -8 -15 -4 3 -8 12 -8 20 0 8 4 14 8 14 4 0 8 -9 8 -19z m34 4 c0 -8 -4
-15 -10 -15 -5 0 -10 7 -10 15 0 8 5 15 10 15 6 0 10 -7 10 -15z m95 5 c-3 -5
6 -11 20 -14 31 -8 51 -39 60 -93 8 -49 14 -46 -92 -43 -68 1 -76 -7 -43 -40
21 -21 84 -28 95 -10 12 19 35 10 35 -14 0 -42 -92 -61 -151 -30 -76 39 -76
176 0 222 17 10 28 21 25 25 -3 3 8 5 25 5 17 -1 28 -4 26 -8z m92 -6 c2 -7
-6 -10 -22 -7 -14 3 -25 10 -25 15 0 13 43 6 47 -8z m53 6 c0 -5 6 -10 13 -10
6 0 24 -14 40 -32 l27 -33 28 33 c16 19 36 32 50 32 12 0 22 5 22 10 0 6 7 10
15 10 8 0 15 -7 15 -16 0 -8 -4 -13 -8 -10 -5 3 -16 -8 -25 -23 -15 -26 -15
-27 5 -27 12 1 23 -5 26 -13 4 -11 -3 -13 -32 -8 -32 5 -38 3 -48 -18 -9 -20
-6 -30 22 -65 20 -26 36 -37 40 -30 4 6 7 -3 7 -20 0 -27 -3 -30 -34 -30 -18
0 -33 3 -33 8 0 4 -12 20 -26 36 l-26 30 -32 -38 c-25 -30 -37 -37 -59 -34
l-29 3 31 42 c32 44 38 59 22 48 -5 -3 -12 -1 -16 4 -3 6 4 8 15 6 35 -7 33
21 -4 70 -37 48 -44 65 -25 65 5 0 7 5 4 10 -3 6 -1 10 4 10 6 0 11 -4 11 -10z
m113 -9 c-4 -17 -9 -18 -29 -9 -33 15 -30 28 5 28 24 0 28 -3 24 -19z m147 10
c0 -6 -4 -13 -10 -16 -5 -3 -10 1 -10 9 0 9 5 16 10 16 6 0 10 -4 10 -9z m27
-11 c-1 -11 -5 -20 -9 -20 -10 0 -10 4 -2 24 8 22 13 20 11 -4z m89 0 c0 -25
-16 -27 -17 -2 -1 16 -2 16 -6 0 -6 -24 -23 -23 -23 2 0 14 7 20 23 20 16 0
23 -6 23 -20z m-1146 -55 c5 3 10 0 10 -8 0 -9 -10 -14 -25 -14 -18 0 -25 5
-25 19 0 17 3 18 15 8 8 -6 19 -9 25 -5z m56 -22 c-11 -11 -19 6 -11 24 8 17
8 17 12 0 3 -10 2 -21 -1 -24z m122 -2 c-15 -5 -19 4 -11 24 6 18 7 18 13 -1
4 -10 3 -21 -2 -23z m313 12 c-8 -15 -10 -15 -11 -2 0 17 10 32 18 25 2 -3 -1
-13 -7 -23z m544 7 c0 -7 -6 -15 -12 -17 -8 -3 -13 4 -13 17 0 13 5 20 13 18
6 -3 12 -11 12 -18z m22 -12 c-3 -7 -5 -2 -5 12 0 14 2 19 5 13 2 -7 2 -19 0
-25z m-959 4 c6 -18 -15 -14 -22 4 -4 10 -1 14 6 12 6 -2 14 -10 16 -16z m56
3 c-4 -8 -11 -15 -16 -15 -6 0 -5 6 2 15 7 8 14 15 16 15 2 0 1 -7 -2 -15z
m73 -7 c-3 -8 -6 -5 -6 6 -1 11 2 17 5 13 3 -3 4 -12 1 -19z m490 0 c-3 -8 -6
-5 -6 6 -1 11 2 17 5 13 3 -3 4 -12 1 -19z m40 0 c-3 -8 -6 -5 -6 6 -1 11 2
17 5 13 3 -3 4 -12 1 -19z m-694 -53 c4 -8 2 -17 -3 -20 -6 -4 -10 3 -10 14 0
25 6 27 13 6z m903 6 c-4 -5 0 -11 6 -14 7 -2 -2 -4 -19 -5 -37 -1 -45 14 -10
21 12 2 23 5 25 6 2 0 1 -3 -2 -8z m91 -23 c-3 -7 -5 -2 -5 12 0 14 2 19 5 13
2 -7 2 -19 0 -25z m-1077 12 c0 -5 -4 -10 -10 -10 -5 0 -10 5 -10 10 0 6 5 10
10 10 6 0 10 -4 10 -10z m190 0 c0 -5 -8 -10 -17 -10 -15 0 -16 2 -3 10 19 12
20 12 20 0z m160 0 c0 -5 -4 -10 -10 -10 -5 0 -10 5 -10 10 0 6 5 10 10 10 6
0 10 -4 10 -10z m-323 -64 c-5 -15 -47 -14 -47 1 0 8 10 12 25 11 14 -1 24 -7
22 -12z m63 5 c0 -6 -4 -13 -10 -16 -5 -3 -10 1 -10 9 0 9 5 16 10 16 6 0 10
-4 10 -9z m100 -6 c0 -2 -7 -5 -15 -9 -9 -3 -15 0 -15 9 0 9 6 12 15 9 8 -4
15 -7 15 -9z m866 3 c4 -6 3 -8 -4 -4 -5 3 -13 0 -15 -6 -3 -8 -6 -6 -6 5 -1
19 14 23 25 5z m21 -10 c-3 -8 -6 -5 -6 6 -1 11 2 17 5 13 3 -3 4 -12 1 -19z
m-557 2 c0 -5 -4 -10 -10 -10 -5 0 -10 5 -10 10 0 6 5 10 10 10 6 0 10 -4 10
-10z m-145 -60 c3 -5 1 -10 -4 -10 -6 0 -11 5 -11 10 0 6 2 10 4 10 3 0 8 -4
11 -10z m657 -72 c-7 -7 -12 -8 -12 -2 0 14 12 26 19 19 2 -3 -1 -11 -7 -17z
m-692 -254 c0 -8 -7 -14 -15 -14 -15 0 -21 21 -9 33 10 9 24 -2 24 -19z m90
16 c0 -5 -2 -10 -4 -10 -3 0 -8 5 -11 10 -3 6 -1 10 4 10 6 0 11 -4 11 -10z
m80 0 c0 -5 -2 -10 -4 -10 -3 0 -8 5 -11 10 -3 6 -1 10 4 10 6 0 11 -4 11 -10z
m92 -1 c4 -28 0 -34 -24 -36 -30 -2 -43 10 -35 31 6 15 56 19 59 5z m88 -14
c0 -14 -4 -25 -10 -25 -5 0 -10 7 -10 16 0 14 -3 14 -15 4 -18 -15 -30 -7 -22
15 4 8 18 15 32 15 20 0 25 -5 25 -25z m85 15 c4 -6 4 -19 0 -28 -6 -15 -8
-15 -22 3 -14 18 -15 18 -9 2 4 -13 2 -17 -6 -15 -7 3 -14 14 -16 26 -3 18 2
22 22 22 14 0 28 -5 31 -10z m87 4 c14 -13 -6 -44 -27 -44 -24 0 -35 16 -27
38 4 12 44 17 54 6z m-395 -36 c-3 -8 -6 -5 -6 6 -1 11 2 17 5 13 3 -3 4 -12
1 -19z m-77 2 c0 -5 -4 -10 -10 -10 -5 0 -10 5 -10 10 0 6 5 10 10 10 6 0 10
-4 10 -10z m325 -290 c3 -5 1 -10 -4 -10 -6 0 -11 5 -11 10 0 6 2 10 4 10 3 0
8 -4 11 -10z"/>
<path d="M3466 3697 c-5 -9 -6 -27 -3 -39 4 -16 3 -18 -6 -9 -12 12 -37 15
-37 4 0 -13 81 -76 87 -69 4 4 1 12 -5 18 -20 20 -14 29 16 26 41 -5 42 15 0
25 -29 7 -38 14 -41 35 -3 23 -4 24 -11 9z"/>
<path d="M4206 3671 c-9 -14 17 -40 43 -43 35 -4 37 19 2 36 -35 18 -38 19
-45 7z"/>
<path d="M4555 3651 c-3 -5 -19 -9 -36 -9 -37 1 -61 -18 -39 -33 19 -12 66 -4
98 17 20 13 22 18 11 25 -18 11 -26 11 -34 0z"/>
<path d="M3373 3606 l-28 -25 40 -40 c21 -23 36 -41 33 -41 -3 0 -27 9 -53 21
-64 28 -76 15 -40 -46 15 -26 25 -49 22 -52 -3 -2 -23 12 -45 32 -22 20 -43
32 -46 27 -3 -6 1 -15 9 -22 12 -10 13 -16 4 -27 -10 -11 -15 -11 -29 2 -37
34 -27 -4 10 -40 39 -38 70 -43 37 -7 -13 14 -14 21 -5 30 9 9 16 8 30 -5 17
-15 19 -15 38 2 12 10 18 25 15 33 -7 20 12 41 33 36 22 -6 48 34 33 49 -19
19 -12 29 18 22 36 -8 52 12 16 21 -14 3 -25 12 -25 20 0 7 -9 18 -19 24 -16
8 -26 5 -48 -14z m47 -15 c0 -5 -6 -14 -14 -20 -16 -13 -32 2 -21 19 8 12 35
13 35 1z m-60 -96 c0 -12 -19 -12 -23 0 -4 9 -1 12 9 8 7 -3 14 -7 14 -8z"/>
<path d="M5140 3590 c0 -15 -7 -20 -25 -20 l-25 0 0 -150 c0 -143 -1 -150 -20
-150 -13 0 -20 -7 -20 -20 0 -16 -7 -20 -35 -20 -28 0 -35 -4 -35 -20 0 -16
-7 -20 -35 -20 -31 0 -35 -3 -35 -25 0 -18 -5 -25 -20 -25 -13 0 -20 -7 -20
-20 0 -17 -7 -20 -50 -20 -43 0 -50 3 -50 20 0 15 -7 20 -25 20 -20 0 -25 5
-25 25 0 18 -5 25 -20 25 -17 0 -20 7 -20 40 0 33 -3 40 -20 40 -19 0 -20 -7
-20 -130 l0 -130 25 0 c18 0 25 -5 25 -20 0 -13 7 -20 20 -20 15 0 20 -7 20
-25 0 -20 5 -25 25 -25 18 0 25 -5 25 -20 0 -13 7 -20 20 -20 13 0 20 -7 20
-19 0 -13 8 -21 23 -23 21 -3 22 -8 25 -95 l3 -93 39 0 c33 0 40 3 40 20 0 13
-7 20 -20 20 -16 0 -20 7 -20 30 0 16 3 29 8 29 22 -4 32 3 32 21 0 13 7 20
19 20 13 0 21 8 23 23 2 16 10 22 28 22 18 0 26 -6 28 -22 2 -15 10 -23 23
-23 17 0 19 -8 19 -70 l0 -70 45 0 c38 0 45 3 45 20 0 15 -7 20 -25 20 -25 0
-25 0 -25 95 0 95 0 95 25 95 18 0 25 5 25 20 0 13 7 20 20 20 16 0 20 7 20
35 0 28 4 35 20 35 17 0 19 8 22 78 3 76 3 77 31 80 23 3 27 0 27 -22 0 -16 6
-26 15 -26 11 0 15 12 15 45 l0 45 -45 0 -45 0 0 45 0 45 95 0 c88 0 95 1 95
20 0 18 -7 20 -70 20 -68 0 -70 1 -70 25 l0 25 110 0 110 0 0 100 c0 93 -1
100 -20 100 -13 0 -20 7 -20 20 0 19 -7 20 -175 20 -168 0 -175 -1 -175 -20z
m90 -65 c0 -20 -5 -25 -25 -25 -20 0 -25 5 -25 25 0 20 5 25 25 25 20 0 25 -5
25 -25z"/>
<path d="M4290 3415 c0 -2 29 -20 65 -41 49 -27 72 -34 92 -29 26 6 26 6 -13
24 -106 50 -144 62 -144 46z"/>
<path d="M3176 3394 c-34 -33 -7 -76 34 -54 25 13 30 13 30 -5 0 -8 -9 -15
-20 -15 -11 0 -20 -4 -20 -10 0 -14 43 -13 58 2 19 19 14 46 -9 59 -15 8 -24
8 -32 0 -13 -13 -37 -15 -37 -2 0 5 9 11 21 14 12 3 18 10 14 16 -9 15 -21 14
-39 -5z"/>
<path d="M3110 3325 l-24 -25 39 -40 39 -40 28 27 c15 15 26 29 23 31 -3 3
-16 -5 -29 -17 -19 -18 -25 -19 -35 -8 -9 11 -8 17 4 27 8 7 15 17 15 23 0 5
-9 2 -20 -8 -16 -14 -23 -16 -32 -7 -9 9 -7 17 7 32 27 30 13 34 -15 5z"/>
<path d="M3035 3244 l-18 -28 36 -33 c39 -36 72 -46 43 -14 -24 27 -12 44 26
36 21 -5 28 -4 24 4 -4 6 -16 11 -26 11 -12 0 -20 8 -22 23 -5 33 -41 34 -63
1z m49 -3 c3 -4 -3 -16 -13 -25 -22 -20 -40 -4 -21 19 14 17 26 19 34 6z"/>
<path d="M3027 3158 c23 -23 45 -39 48 -36 8 7 -65 77 -80 78 -5 0 9 -19 32
-42z"/>
<path d="M2970 3177 c0 -2 11 -18 25 -37 13 -18 22 -37 20 -41 -6 -9 14 -23
22 -15 7 6 -49 96 -59 96 -5 0 -8 -1 -8 -3z"/>
<path d="M2930 3133 c0 -5 9 -19 20 -33 28 -36 24 -45 -9 -21 -31 22 -41 26
-41 13 0 -11 88 -57 96 -50 3 4 -3 20 -15 36 -26 38 -27 46 0 32 11 -7 23 -9
26 -7 6 6 -50 37 -67 37 -5 0 -10 -3 -10 -7z"/>
<path d="M3183 2883 c9 -2 25 -2 35 0 9 3 1 5 -18 5 -19 0 -27 -2 -17 -5z"/>
<path d="M3273 2883 c9 -2 23 -2 30 0 6 3 -1 5 -18 5 -16 0 -22 -2 -12 -5z"/>
<path d="M3358 2883 c7 -3 16 -2 19 1 4 3 -2 6 -13 5 -11 0 -14 -3 -6 -6z"/>
<path d="M3453 2883 c9 -2 23 -2 30 0 6 3 -1 5 -18 5 -16 0 -22 -2 -12 -5z"/>
<path d="M3558 2883 c7 -3 16 -2 19 1 4 3 -2 6 -13 5 -11 0 -14 -3 -6 -6z"/>
<path d="M6008 2400 c-41 -44 -35 -58 16 -39 28 10 38 10 50 0 24 -20 20 -37
-15 -64 -24 -19 -32 -34 -36 -68 l-5 -45 41 4 c31 3 41 8 41 22 0 10 13 29 29
42 61 52 65 116 10 162 -46 39 -86 34 -131 -14z"/>
<path d="M4588 2402 c-30 -12 -38 -20 -38 -40 0 -14 -6 -30 -14 -36 -8 -6 -17
-21 -21 -33 -5 -19 -2 -23 14 -23 19 0 21 -6 21 -57 0 -89 15 -128 54 -147 56
-26 72 -21 84 24 9 38 9 40 -12 40 -35 0 -46 20 -46 82 0 55 1 58 25 58 21 0
25 5 25 30 0 25 -4 30 -24 30 -22 0 -25 5 -28 43 l-3 43 -37 -14z"/>
<path d="M4775 2380 c3 -5 8 -10 11 -10 2 0 4 5 4 10 0 6 -5 10 -11 10 -5 0
-7 -4 -4 -10z"/>
<path d="M5754 2336 c-32 -32 -37 -64 -10 -68 19 -3 21 -11 26 -88 5 -83 6
-85 39 -107 45 -31 77 -30 85 1 3 13 9 31 12 40 5 12 0 16 -20 16 -33 0 -48
29 -44 88 3 40 6 47 26 50 17 3 22 10 22 33 0 18 -5 29 -14 29 -7 0 -27 7 -42
15 -38 19 -54 18 -80 -9z"/>
<path d="M3961 2337 c-78 -20 -106 -118 -51 -180 16 -19 27 -36 24 -39 -3 -3
15 -3 39 -1 24 3 54 0 66 -6 23 -13 28 -50 9 -69 -16 -16 -83 -15 -108 0 -15
10 -23 9 -39 -6 -30 -27 -27 -34 22 -56 56 -26 103 -25 157 3 56 28 72 69 47
123 -9 18 -22 34 -29 34 -6 0 -1 11 12 25 19 20 22 32 18 74 -4 36 -1 51 9 55
7 3 13 16 13 28 0 23 -3 24 -80 23 -44 0 -93 -3 -109 -8z m81 -74 c24 -21 23
-55 -2 -78 -46 -41 -116 29 -75 75 22 24 52 26 77 3z"/>
<path d="M4290 2338 c-94 -27 -139 -136 -90 -216 22 -35 88 -72 130 -72 39 0
105 35 128 68 29 40 30 115 2 160 -31 51 -109 78 -170 60z m95 -94 c38 -41 29
-81 -25 -109 -27 -14 -33 -14 -59 -1 -47 25 -56 81 -19 116 31 28 74 26 103
-6z"/>
<path d="M5020 2343 c-8 -3 -25 -15 -37 -26 l-23 -20 0 22 c0 19 -4 22 -22 17
-13 -3 -29 -6 -35 -6 -10 0 -13 -34 -13 -136 l0 -135 38 3 37 3 5 90 c5 82 7
90 29 101 13 7 30 27 38 44 20 49 18 56 -17 43z"/>
<path d="M5162 2337 c-94 -35 -131 -142 -76 -225 18 -27 87 -62 124 -62 42 0
108 37 130 72 26 43 26 111 0 153 -33 54 -119 83 -178 62z m96 -83 c16 -11 22
-25 22 -53 0 -64 -53 -94 -108 -61 -26 16 -32 26 -32 54 0 64 66 97 118 60z"/>
<path d="M5497 2335 c-106 -37 -138 -148 -66 -230 57 -64 150 -70 215 -13 89
78 54 215 -64 248 -44 12 -38 12 -85 -5z m98 -90 c30 -29 31 -54 5 -88 -27
-34 -53 -41 -88 -23 -48 25 -56 74 -20 113 29 31 72 30 103 -2z"/>
<path d="M6035 2135 l-29 -26 27 -27 27 -27 27 28 28 27 -25 25 -25 25 -30
-25z"/>
<path d="M6430 1980 c-16 -16 -20 -33 -20 -95 l0 -75 65 0 65 0 0 75 c0 84
-18 115 -65 115 -14 0 -34 -9 -45 -20z"/>
<path d="M7187 1982 c-13 -14 -17 -38 -17 -95 l0 -77 65 0 65 0 0 69 c0 54 -4
74 -21 95 -24 31 -68 35 -92 8z"/>
<path d="M6570 1800 l0 -190 285 0 285 0 0 190 0 190 -285 0 -285 0 0 -190z
m280 123 c-1 -19 -67 -113 -74 -106 -5 5 10 -22 33 -58 22 -36 41 -69 41 -73
0 -3 -19 -6 -43 -6 -42 0 -44 1 -80 62 l-37 62 19 30 c10 17 23 30 29 29 6 -2
9 4 5 12 -10 27 26 55 69 55 21 0 38 -3 38 -7z m130 -55 l40 -61 -19 -31 c-11
-17 -27 -46 -37 -63 -15 -30 -21 -33 -60 -33 -24 0 -44 3 -44 8 0 4 16 31 35
61 l35 53 -35 58 c-19 32 -35 60 -35 64 0 3 18 6 40 6 39 0 42 -3 80 -62z"/>
<path d="M4430 1898 c-18 -19 -20 -35 -20 -135 0 -63 4 -113 9 -113 18 0 41
-31 41 -55 0 -14 -9 -29 -21 -35 -16 -9 -18 -14 -8 -26 10 -12 15 -10 30 16
23 37 61 40 83 8 15 -21 16 -13 16 111 l0 133 -36 -21 c-43 -26 -41 -26 -54
-1 -9 18 -4 24 44 55 30 19 67 35 81 35 l25 0 0 -165 0 -165 41 0 c36 0 40 -2
37 -22 -3 -21 -9 -23 -71 -26 -58 -2 -68 -6 -65 -20 3 -14 17 -18 72 -20 108
-5 106 -9 106 234 0 250 11 234 -167 234 -113 0 -124 -2 -143 -22z"/>
<path d="M4812 1904 c-21 -15 -22 -20 -22 -218 0 -184 2 -204 18 -219 15 -14
42 -17 150 -17 172 0 162 -15 162 237 0 246 9 233 -163 233 -95 0 -128 -4
-145 -16z m193 -38 c62 -26 82 -109 35 -151 -18 -17 -18 -18 8 -40 22 -19 27
-32 27 -69 0 -38 -5 -51 -30 -76 -49 -48 -140 -53 -195 -10 -24 18 -24 20 -7
37 16 16 19 16 46 0 39 -23 86 -22 111 3 44 44 10 110 -56 110 -29 0 -35 3
-30 16 3 9 6 20 6 25 0 5 13 9 28 9 41 0 68 33 56 68 -14 39 -56 51 -99 28
-28 -16 -37 -17 -50 -6 -23 19 -19 26 28 49 49 25 75 26 122 7z"/>
<path d="M5181 1894 c-19 -25 -21 -40 -21 -196 l0 -170 65 60 c65 61 152 110
234 132 l43 11 -4 74 c-5 111 -11 115 -169 115 -126 0 -128 0 -148 -26z m184
-84 c24 -26 13 -68 -20 -76 -35 -9 -53 1 -61 31 -7 29 18 65 46 65 9 0 25 -9
35 -20z"/>
<path d="M5560 1900 c-16 -16 -20 -33 -20 -94 l0 -75 93 -3 c111 -4 115 -3
124 30 13 55 -41 86 -101 57 -35 -17 -39 -17 -54 -2 -15 16 -15 18 3 32 11 8
37 20 58 26 45 15 104 0 133 -32 24 -26 25 -91 2 -116 -16 -18 -15 -19 28 -39
l44 -21 0 109 c0 148 0 148 -165 148 -112 0 -127 -2 -145 -20z"/>
<path d="M5931 1894 c-18 -23 -21 -41 -21 -140 l0 -113 48 -45 c26 -25 50 -42
54 -38 3 4 31 63 62 132 l55 125 -80 3 c-76 3 -79 4 -79 27 l0 25 109 0 c64 0
112 -4 116 -10 4 -6 -27 -89 -69 -186 -65 -152 -74 -178 -64 -200 10 -22 17
-24 78 -24 107 0 104 -5 108 222 3 185 2 195 -18 221 -21 27 -22 27 -150 27
-127 0 -129 0 -149 -26z"/>
<path d="M5540 1573 c0 -109 10 -123 88 -123 41 0 53 4 62 20 9 17 8 20 -11
20 -23 0 -99 39 -99 51 0 3 7 12 16 20 13 10 20 10 44 -4 58 -35 130 -9 130
47 0 32 -40 46 -147 53 l-83 6 0 -90z"/>
<path d="M5431 1632 c-36 -14 -46 -23 -53 -49 -9 -35 -33 -47 -71 -38 -20 5
-31 -2 -65 -42 l-42 -48 118 -3 c64 -1 126 0 138 2 30 8 44 48 44 126 0 78 0
78 -69 52z"/>
<path d="M5826 1574 c-4 -13 -15 -33 -26 -44 -20 -20 -20 -20 25 -20 44 0 45
1 45 33 0 21 -7 36 -19 44 -17 10 -20 9 -25 -13z"/>
<path d="M4115 1550 c-32 -16 -45 -18 -77 -10 -48 14 -97 -9 -163 -77 -83 -84
-111 -134 -161 -278 -27 -77 -32 -199 -12 -306 l10 -57 72 -27 c99 -37 219
-44 301 -17 178 59 244 94 303 160 52 58 64 87 60 152 -2 36 2 63 10 72 18 22
35 126 27 172 -7 48 -48 126 -82 158 -21 19 -26 20 -34 8 -9 -12 -10 -12 -5 3
5 14 -5 23 -47 42 -66 31 -94 31 -123 0 -13 -14 -25 -21 -28 -16 -3 5 1 11 9
15 8 3 15 10 15 16 0 16 -32 12 -75 -10z m-125 -110 c0 -5 -5 -10 -11 -10 -5
0 -7 5 -4 10 3 6 8 10 11 10 2 0 4 -4 4 -10z m305 -80 c3 -5 1 -10 -4 -10 -6
0 -11 5 -11 10 0 6 2 10 4 10 3 0 8 -4 11 -10z m-159 -56 c-9 -9 -20 -14 -23
-10 -4 3 2 13 13 20 25 18 31 12 10 -10z m-121 6 c3 -5 1 -10 -4 -10 -6 0 -11
5 -11 10 0 6 2 10 4 10 3 0 8 -4 11 -10z m431 -78 c-18 -16 -18 -16 -6 6 6 13
14 21 18 18 3 -4 -2 -14 -12 -24z m-183 4 c4 -10 1 -13 -8 -9 -8 3 -12 9 -9
14 7 12 11 11 17 -5z m-73 -96 c0 -5 -4 -10 -10 -10 -5 0 -10 5 -10 10 0 6 5
10 10 10 6 0 10 -4 10 -10z m170 -34 c0 -3 -4 -8 -10 -11 -5 -3 -10 -1 -10 4
0 6 5 11 10 11 6 0 10 -2 10 -4z m-490 -86 c0 -5 -2 -10 -4 -10 -3 0 -8 5 -11
10 -3 6 -1 10 4 10 6 0 11 -4 11 -10z m175 -26 c-9 -9 -19 -13 -23 -10 -3 4 0
11 8 16 24 15 33 11 15 -6z m-145 -84 c-8 -5 -19 -10 -25 -10 -5 0 -3 5 5 10
8 5 20 10 25 10 6 0 3 -5 -5 -10z m70 -30 c0 -5 -5 -10 -11 -10 -5 0 -7 5 -4
10 3 6 8 10 11 10 2 0 4 -4 4 -10z m0 -30 c0 -5 -2 -10 -4 -10 -3 0 -8 5 -11
10 -3 6 -1 10 4 10 6 0 11 -4 11 -10z m-102 -44 c-13 -13 -25 -22 -27 -20 -6
5 30 44 41 44 5 0 -2 -11 -14 -24z"/>
<path d="M5910 1525 c0 -8 7 -15 16 -15 14 0 14 3 4 15 -7 8 -14 15 -16 15 -2
0 -4 -7 -4 -15z"/>
<path d="M3267 2402 c-25 -28 -21 -32 28 -32 47 0 56 9 30 30 -12 10 -15 10
-15 -2 0 -7 -9 -14 -20 -15 -11 -1 -20 2 -20 8 0 5 7 9 15 9 8 0 15 5 15 10 0
16 -15 12 -33 -8z"/>
</g>
</svg>
